<svg width="270" height="350" xmlns="http://www.w3.org/2000/svg">

 <title>isfp-adventurer-personality-header</title>
 <g>
  <title>Layer 1</title>
  <polygon id="svg_1" fill="#dfbda5" fill-rule="evenodd" points="162.83416748046875,322.60682106018066 163.70416259765625,333.3068332672119 176.55413818359375,333.3068332672119 180.79412841796875,329.22681617736816 184.42413330078125,325.7168369293213 173.06414794921875,314.2868137359619 167.524169921875,314.0968418121338 162.83416748046875,322.60682106018066 " class="y"/>
  <polygon id="svg_2" fill="#c3987b" fill-rule="evenodd" points="163.70416259765625,333.3068332672119 163.024169921875,324.50681495666504 170.54412841796875,332.3068332672119 188.984130859375,321.98682594299316 197.274169921875,333.3068332672119 163.70416259765625,333.3068332672119 " class="z"/>
  <polygon id="svg_3" fill="#dfbda5" fill-rule="evenodd" points="116.09414672851562,314.0968418121338 121.78414916992188,321.3068332672119 123.71414184570312,332.75681495666504 113.56414794921875,332.75681495666504 108.84414672851562,328.65683937072754 103.82415771484375,322.60682106018066 107.70416259765625,315.88681983947754 116.09414672851562,314.0968418121338 " class="y"/>
  <polygon id="svg_4" fill="#c3987b" fill-rule="evenodd" points="104.32415771484375,322.0768222808838 94.08416748046875,332.75681495666504 123.71414184570312,332.75681495666504 122.41415405273438,324.99683570861816 117.05416870117188,332.75681495666504 104.32415771484375,322.0768222808838 " class="z"/>
  <polygon id="svg_5" fill="#8b6651" fill-rule="evenodd" points="170.21417236328125,311.4168186187744 165.67413330078125,311.85682106018066 161.96417236328125,313.90683937072754 162.83416748046875,322.60682106018066 173.06414794921875,314.2868137359619 170.21417236328125,311.4168186187744 " class="aa"/>
  <polygon id="svg_6" fill="#8b6651" fill-rule="evenodd" points="120.34414672851562,312.72681617736816 116.69415283203125,310.47681617736816 110.76416015625,310.5868320465088 107.70416259765625,315.88681983947754 121.78414916992188,321.3168430328369 120.34414672851562,312.72681617736816 " class="aa"/>
  <polygon id="svg_7" fill="#bf8f00" fill-rule="evenodd" points="173.54412841796875,244.38681983947754 154.504150390625,252.0768222808838 135.83416748046875,262.61683082580566 147.54412841796875,294.00681495666504 165.6141357421875,290.1968173980713 183.18414306640625,283.4468173980713 173.54412841796875,244.38681983947754 " class="ab"/>
  <polygon id="svg_8" fill="#e5c828" fill-rule="evenodd" points="147.54412841796875,294.00681495666504 151.68414306640625,305.8168430328369 167.82415771484375,295.9468173980713 183.18414306640625,283.4468173980713 147.54412841796875,294.00681495666504 " class="ac"/>
  <polygon id="svg_9" fill="#ccad14" fill-rule="evenodd" points="151.68414306640625,305.8168430328369 183.18414306640625,283.4468173980713 189.3941650390625,305.61683082580566 170.59417724609375,307.4568271636963 151.68414306640625,305.8168430328369 " class="ad"/>
  <polygon id="svg_10" fill="#e5c828" fill-rule="evenodd" points="151.68414306640625,305.8168430328369 155.83416748046875,315.76682472229004 189.3941650390625,305.61683082580566 151.68414306640625,305.8168430328369 " class="ac"/>
  <polygon id="svg_11" fill="#bf8f00" fill-rule="evenodd" points="135.83416748046875,262.61683082580566 133.244140625,292.97681617736816 114.54415893554688,290.90683937072754 92.43414306640625,285.9268283843994 95.6441650390625,246.0468235015869 119.32415771484375,254.1868381500244 135.83416748046875,262.61683082580566 " class="ab"/>
  <polygon id="svg_12" fill="#e5c828" fill-rule="evenodd" points="92.43414306640625,285.9268283843994 113.20416259765625,297.9668369293213 132.21414184570312,305.8168430328369 133.244140625,292.97681617736816 92.43414306640625,285.9268283843994 " class="ac"/>
  <polygon id="svg_13" fill="#ccad14" fill-rule="evenodd" points="92.43414306640625,285.9268283843994 90.35415649414062,306.02683448791504 113.20416259765625,307.0768222808838 132.21414184570312,305.8168430328369 92.43414306640625,285.9268283843994 " class="ad"/>
  <polygon id="svg_14" fill="#e5c828" fill-rule="evenodd" points="132.21414184570312,305.8168430328369 90.35415649414062,306.02683448791504 131.17416381835938,315.14682960510254 132.21414184570312,305.8168430328369 " class="ac"/>
  <polygon id="svg_15" fill="#474747" fill-rule="evenodd" points="154.08416748046875,152.23682594299316 162.57415771484375,155.0768222808838 167.274169921875,159.5568332672119 173.44415283203125,158.71682167053223 185.04412841796875,170.52683448791504 181.71417236328125,181.35682106018066 173.234130859375,193.93682289123535 99.47415161132812,195.8068332672119 90.6441650390625,188.35682106018066 83.93414306640625,179.22683143615723 100.51416015625,158.5068302154541 106.82415771484375,157.68682289123535 110.01416015625,154.43682289123535 119.51416015625,150.3768253326416 134.18414306640625,160.9268283843994 154.08416748046875,152.23682594299316 " class="ae"/>
  <polygon id="svg_16" fill="#856400" fill-rule="evenodd" points="173.54412841796875,244.38681983947754 135.83416748046875,262.61683082580566 95.6441650390625,246.0468235015869 99.47415161132812,195.8068332672119 105.73416137695312,188.68682289123535 112.01416015625,185.1368350982666 161.1141357421875,182.43682289123535 166.9141845703125,185.5068302154541 173.234130859375,193.93682289123535 173.54412841796875,244.38681983947754 " class="af"/>
  <polygon id="svg_17" fill="#e5c828" fill-rule="evenodd" points="70.67416381835938,177.56682777404785 30.484161376953125,183.5768222808838 17.6341552734375,217.96682167053223 35.864166259765625,246.76682472229004 72.54415893554688,259.61683082580566 108.90414428710938,251.51682472229004 105.48416137695312,217.14682960510254 79.58416748046875,212.16683387756348 70.67416381835938,177.56682777404785 " class="ac"/>
  <polygon id="svg_18" fill="#c3987b" fill-rule="evenodd" points="61.354156494140625,195.1768283843994 56.94415283203125,199.49683570861816 50.57415771484375,203.46682167053223 59.484161376953125,217.5568332672119 69.43414306640625,209.26682472229004 64.17416381835938,201.35682106018066 61.354156494140625,195.1768283843994 " class="z"/>
  <polygon id="svg_19" fill="#8b6651" fill-rule="evenodd" points="66.29415893554688,211.8868350982666 63.01416015625,202.01682472229004 50.57415771484375,203.46682167053223 61.354156494140625,195.1768283843994 69.43414306640625,209.26682472229004 66.29415893554688,211.8868350982666 " class="aa"/>
  <polygon id="svg_20" fill="#dfbda5" fill-rule="evenodd" points="63.01416015625,202.01682472229004 50.57415771484375,203.46682167053223 47.054168701171875,216.77683448791504 50.93414306640625,218.90682411193848 63.01416015625,202.01682472229004 " class="y"/>
  <rect transform="rotate(-69.84 -302.808 502.977)" id="svg_21" fill="#474747" height="8.29" width="8.29" y="714.39682" x="96.56194" class="ag"/>
  <rect transform="rotate(-69.84 -318.888 507.287)" id="svg_22" fill="#802d00" height="8.29" width="8.29" y="732.38681" x="75.51194" class="ah"/>
  <rect transform="rotate(-69.83 -330.058 521.957)" id="svg_23" fill="#a84000" height="8.29" width="8.29" y="762.38686" x="69.31194" class="ai"/>
  <rect transform="rotate(-69.84 -331.478 540.637)" id="svg_24" fill="#cc4e00" height="8.29" width="8.29" y="791.42685" x="80.53194" class="aj"/>
  <rect transform="rotate(-69.83 -327.138 557.227)" id="svg_25" fill="#ed8600" height="8.29" width="8.29" y="813.19682" x="98.96194" class="ak"/>
  <rect transform="rotate(-69.84 -317.058 572.487)" id="svg_26" fill="#ff9b01" height="8.29" width="8.29" y="828.87683" x="124.99194" class="al"/>
  <rect transform="rotate(-69.84 -300.218 580.447)" id="svg_27" fill="#f4d75d" height="8.29" width="8.29" y="828.74685" x="155.92195" class="am"/>
  <polygon id="svg_28" fill="#dfbda5" fill-rule="evenodd" points="99.47415161132812,195.8068332672119 79.58416748046875,212.16683387756348 74.09414672851562,190.8368320465088 83.93414306640625,179.22683143615723 99.47415161132812,195.8068332672119 " class="y"/>
  <polygon id="svg_29" fill="#dfbda5" fill-rule="evenodd" points="201.20416259765625,184.3068332672119 185.04412841796875,170.52683448791504 173.234130859375,193.93682289123535 185.1441650390625,197.97683143615723 196.04412841796875,194.1768283843994 201.20416259765625,184.3068332672119 " class="y"/>
  <polygon id="svg_30" fill="#bf8f00" fill-rule="evenodd" points="173.44415283203125,158.71682167053223 173.234130859375,193.93682289123535 161.1141357421875,182.43682289123535 162.56414794921875,155.0768222808838 173.44415283203125,158.71682167053223 " class="ab"/>
  <polygon id="svg_31" fill="#bf8f00" fill-rule="evenodd" points="110.01416015625,154.43682289123535 112.01416015625,185.1368350982666 99.47415161132812,195.8068332672119 100.51416015625,158.5068302154541 110.01416015625,154.43682289123535 " class="ab"/>
  <rect id="svg_32" fill="#9e7700" height="33.78" width="33.14" y="194.44683" x="119.88416" class="an"/>
  <polygon id="svg_33" fill="#9e7700" fill-rule="evenodd" points="173.34417724609375,212.27683448791504 169.6141357421875,209.5768222808838 165.8841552734375,216.41683387756348 170.8541259765625,215.5868320465088 173.4041748046875,221.59682655334473 173.34417724609375,212.27683448791504 " class="ao"/>
  <polygon id="svg_34" fill="#ccad14" fill-rule="evenodd" points="151.58416748046875,232.36683082580566 146.19415283203125,236.71682167053223 147.024169921875,241.0768222808838 154.07415771484375,246.25681495666504 156.76416015625,235.26682472229004 151.58416748046875,232.36683082580566 " class="ad"/>
  <polygon id="svg_35" fill="#ccad14" fill-rule="evenodd" points="119.8841552734375,224.7068271636963 128.58416748046875,221.8068332672119 127.754150390625,214.7568302154541 131.90414428710938,213.10682106018066 129.41415405273438,206.26682472229004 127.1341552734375,207.09682655334473 127.34414672851562,210.40682411193848 121.95416259765625,209.99683570861816 119.8841552734375,215.1768283843994 119.11416625976562,219.4268283843994 119.8841552734375,224.7068271636963 " class="ad"/>
  <polygon id="svg_36" fill="#9e7700" fill-rule="evenodd" points="136.8741455078125,234.64682960510254 131.48416137695312,233.19683265686035 132.73416137695312,238.99683570861816 136.66415405273438,238.3768253326416 136.8741455078125,234.64682960510254 " class="ao"/>
  <polygon id="svg_37" fill="#b58b00" fill-rule="evenodd" points="119.8841552734375,215.1768283843994 112.83416748046875,216.2068271636963 116.15414428710938,224.7068271636963 119.8841552734375,224.7068271636963 119.8841552734375,215.1768283843994 " class="ap"/>
  <polygon id="svg_38" fill="#8b6651" fill-rule="evenodd" points="63.01416015625,202.01682472229004 59.484161376953125,217.5568332672119 55.904144287109375,211.8868350982666 63.01416015625,202.01682472229004 " class="aa"/>
  <polygon id="svg_39" fill="#ccad14" fill-rule="evenodd" points="55.904144287109375,211.8868350982666 50.93414306640625,218.90682411193848 59.484161376953125,217.5568332672119 55.904144287109375,211.8868350982666 " class="ad"/>
  <polygon id="svg_40" fill="#c3987b" fill-rule="evenodd" points="185.1441650390625,197.97683143615723 213.994140625,173.0868320465088 223.56414794921875,172.53682899475098 221.94415283203125,183.81682777404785 205.754150390625,204.6268253326416 185.1441650390625,197.97683143615723 " class="z"/>
  <polygon id="svg_41" fill="#8b6651" fill-rule="evenodd" points="213.994140625,173.0868320465088 221.94415283203125,183.81682777404785 229.234130859375,181.26682472229004 223.43414306640625,166.23682594299316 213.994140625,173.0868320465088 " class="aa"/>
  <polygon id="svg_42" fill="#c3987b" fill-rule="evenodd" points="235.734130859375,161.97683143615723 244.81414794921875,175.02683448791504 242.7841796875,177.84682655334473 229.984130859375,172.53682899475098 220.1641845703125,160.9268283843994 235.734130859375,161.97683143615723 " class="z"/>
  <polygon id="svg_43" fill="#474747" fill-rule="evenodd" points="188.504150390625,137.23682594299316 226.3541259765625,178.14682960510254 230.5341796875,174.85682106018066 232.8841552734375,170.43682289123535 188.504150390625,137.23682594299316 " class="ae"/>
  <polygon id="svg_44" fill="#bf8f00" fill-rule="evenodd" points="241.234130859375,188.69683265686035 242.3741455078125,194.8368320465088 252.734130859375,196.28682899475098 250.45416259765625,190.90682411193848 245.83416748046875,189.77683448791504 243.08416748046875,187.6768283843994 241.234130859375,188.69683265686035 " class="ab"/>
  <polygon id="svg_45" fill="#856400" fill-rule="evenodd" points="242.7841796875,177.84682655334473 245.83416748046875,189.77683448791504 234.70416259765625,187.1768283843994 238.3641357421875,181.73682594299316 242.7841796875,177.84682655334473 " class="af"/>
  <polygon id="svg_46" fill="#8f8f8f" fill-rule="evenodd" points="221.46417236328125,172.86683082580566 234.70416259765625,187.1768283843994 242.7841796875,177.84682655334473 232.8841552734375,170.43682289123535 221.46417236328125,172.86683082580566 " class="n"/>
  <polygon id="svg_47" fill="#dfbda5" fill-rule="evenodd" points="218.54412841796875,179.22683143615723 221.46417236328125,172.86683082580566 230.6341552734375,173.94683265686035 232.8841552734375,170.43682289123535 220.1641845703125,160.9268283843994 213.994140625,173.0868320465088 218.54412841796875,179.22683143615723 " class="y"/>
  <polygon id="svg_48" fill="#ccad14" fill-rule="evenodd" points="82.244140625,87.29683113098145 126.79415893554688,76.49682807922363 173.18414306640625,62.88682746887207 172.55413818359375,56.19682502746582 168.76416015625,46.426828384399414 124.6341552734375,66.42682838439941 82.244140625,87.29683113098145 " class="ad"/>
  <polygon id="svg_49" fill="#e5c828" fill-rule="evenodd" points="168.76416015625,46.426828384399414 121.67416381835938,58.09682655334473 74.10415649414062,73.31682777404785 76.1341552734375,79.43683052062988 82.244140625,87.29683113098145 168.76416015625,46.426828384399414 " class="ac"/>
  <polygon id="svg_50" fill="#755800" fill-rule="evenodd" points="116.47415161132812,48.22683143615723 112.17416381835938,62.5068302154541 131.01416015625,57.15683174133301 116.47415161132812,48.22683143615723 " class="aq"/>
  <polygon id="svg_51" fill="#755800" fill-rule="evenodd" points="168.76416015625,46.426828384399414 176.29412841796875,48.94682502746582 184.51416015625,54.916826248168945 174.93414306640625,70.05682563781738 172.82415771484375,65.73682594299316 173.18414306640625,62.88682746887207 168.76416015625,46.426828384399414 " class="aq"/>
  <polygon id="svg_52" fill="#ccad14" fill-rule="evenodd" points="168.76416015625,46.426828384399414 167.79412841796875,38.73682975769043 169.6541748046875,28.73682975769043 179.274169921875,43.05682945251465 184.51416015625,54.916826248168945 168.76416015625,46.426828384399414 " class="ad"/>
  <polygon id="svg_53" fill="#bf8f00" fill-rule="evenodd" points="169.6541748046875,28.73682975769043 194.95416259765625,44.47682762145996 184.51416015625,54.916826248168945 169.6541748046875,28.73682975769043 " class="ab"/>
  <polygon id="svg_54" fill="#856400" fill-rule="evenodd" points="168.76416015625,46.426828384399414 169.6541748046875,28.73682975769043 170.18414306640625,19.0068302154541 151.8641357421875,38.2568302154541 152.30413818359375,51.106828689575195 168.76416015625,46.426828384399414 " class="af"/>
  <polygon id="svg_55" fill="#bf8f00" fill-rule="evenodd" points="164.4041748046875,25.606828689575195 143.6441650390625,11.926828384399414 140.04415893554688,21.30682945251465 138.68414306640625,28.73682975769043 146.04415893554688,35.1168270111084 153.01416015625,38.64682960510254 164.4041748046875,25.606828689575195 " class="ab"/>
  <polygon id="svg_56" fill="#ccad14" fill-rule="evenodd" points="153.01416015625,38.64682960510254 138.68414306640625,28.73682975769043 134.21414184570312,39.90682792663574 131.01416015625,57.15683174133301 152.30413818359375,51.106828689575195 153.01416015625,38.64682960510254 " class="ad"/>
  <polygon id="svg_57" fill="#ccad14" fill-rule="evenodd" points="143.6441650390625,11.926828384399414 114.6241455078125,27.31682777404785 130.48416137695312,29.04682731628418 138.68414306640625,28.73682975769043 143.6441650390625,11.926828384399414 " class="ad"/>
  <polygon id="svg_58" fill="#bf8f00" fill-rule="evenodd" points="138.68414306640625,28.73682975769043 114.6241455078125,27.31682777404785 119.72415161132812,38.81682777404785 131.01416015625,57.15683174133301 138.68414306640625,28.73682975769043 " class="ab"/>
  <polygon id="svg_59" fill="#755800" fill-rule="evenodd" points="69.84414672851562,93.18683052062988 88.11416625976562,97.22683143615723 85.254150390625,90.81682777404785 82.244140625,87.29683113098145 76.18414306640625,88.76682472229004 69.84414672851562,93.18683052062988 " class="aq"/>
  <polygon id="svg_60" fill="#ccad14" fill-rule="evenodd" points="131.01416015625,57.15683174133301 117.244140625,49.57682991027832 108.65414428710938,45.90682792663574 103.47415161132812,42.0068302154541 105.6441650390625,33.59682655334473 109.11416625976562,26.88682746887207 111.26416015625,21.126829147338867 114.6241455078125,27.31682777404785 131.01416015625,57.15683174133301 " class="ad"/>
  <polygon id="svg_61" fill="#bf8f00" fill-rule="evenodd" points="103.47415161132812,42.0068302154541 95.55416870117188,39.48682975769043 87.6441650390625,33.24682807922363 85.96414184570312,25.016828536987305 109.11416625976562,26.88682746887207 103.47415161132812,42.0068302154541 " class="ab"/>
  <polygon id="svg_62" fill="#856400" fill-rule="evenodd" points="103.47415161132812,42.0068302154541 87.6441650390625,33.24682807922363 79.68414306640625,43.8668270111084 85.01416015625,54.236825942993164 93.97415161132812,67.67682838439941 101.33416748046875,51.63682746887207 103.47415161132812,42.0068302154541 " class="af"/>
  <polygon id="svg_63" fill="#856400" fill-rule="evenodd" points="66.8741455078125,75.47683143615723 63.274169921875,96.30682563781738 82.244140625,87.29683113098145 74.10415649414062,73.31682777404785 70.6441650390625,73.13682746887207 66.8741455078125,75.47683143615723 " class="af"/>
  <polygon id="svg_64" fill="#bf8f00" fill-rule="evenodd" points="79.68414306640625,43.8668270111084 72.504150390625,52.05682563781738 69.94415283203125,58.19682502746582 78.504150390625,61.95682716369629 93.97415161132812,67.67682838439941 79.68414306640625,43.8668270111084 " class="ab"/>
  <polygon id="svg_65" fill="#ccad14" fill-rule="evenodd" points="79.68414306640625,43.8668270111084 54.3741455078125,52.356828689575195 69.94415283203125,58.19682502746582 79.68414306640625,43.8668270111084 " class="ad"/>
  <polygon id="svg_66" fill="#ccad14" fill-rule="evenodd" points="69.94415283203125,58.19682502746582 55.974151611328125,78.71682929992676 74.10415649414062,73.31682777404785 93.97415161132812,67.67682838439941 69.94415283203125,58.19682502746582 " class="ad"/>
  <polygon id="svg_67" fill="#bf8f00" fill-rule="evenodd" points="103.47415161132812,42.0068302154541 93.97415161132812,67.67682838439941 104.744140625,81.2568302154541 112.17416381835938,62.5068302154541 117.244140625,49.57682991027832 103.47415161132812,42.0068302154541 " class="ab"/>
  <polygon id="svg_68" fill="#dfbda5" fill-rule="evenodd" points="173.18414306640625,62.88682746887207 188.76416015625,126.7568302154541 160.45416259765625,136.8368320465088 156.70416259765625,143.5568332672119 154.08416748046875,152.23682594299316 141.90414428710938,160.6768283843994 131.78414916992188,171.16683387756348 114.15414428710938,138.6268253326416 102.15414428710938,120.97683143615723 92.55416870117188,104.7568302154541 90.524169921875,96.76682472229004 82.244140625,87.29683113098145 173.18414306640625,62.88682746887207 " class="y"/>
  <polygon id="svg_69" fill="#8b6651" fill-rule="evenodd" points="110.19415283203125,111.46682167053223 105.3741455078125,103.36683082580566 97.54415893554688,107.41682624816895 104.33416748046875,110.61683082580566 110.19415283203125,111.46682167053223 " class="aa"/>
  <polygon id="svg_70" fill="#c3987b" fill-rule="evenodd" points="118.26416015625,77.6268253326416 142.91415405273438,142.94683265686035 153.01416015625,142.89682960510254 154.08416748046875,152.23682594299316 131.78414916992188,171.16683387756348 116.36416625976562,145.03682899475098 114.6241455078125,139.48682594299316 111.774169921875,137.27683448791504 102.15414428710938,120.97683143615723 117.03414916992188,112.1368350982666 112.1441650390625,102.86683082580566 120.28414916992188,98.09682655334473 109.85415649414062,79.88682746887207 118.26416015625,77.6268253326416 " class="z"/>
  <polygon id="svg_71" fill="#c3987b" fill-rule="evenodd" points="133.03414916992188,87.17682838439941 141.69415283203125,87.1268253326416 151.6041259765625,100.56682777404785 149.70416259765625,84.71682929992676 144.21414184570312,76.67682838439941 133.03414916992188,87.17682838439941 " class="z"/>
  <polygon id="svg_72" fill="#c3987b" fill-rule="evenodd" points="155.57415771484375,73.3768253326416 159.51416015625,94.3568286895752 163.6341552734375,79.69682502746582 170.7841796875,75.31682777404785 155.57415771484375,73.3768253326416 " class="z"/>
  <polygon id="svg_73" fill="#856400" fill-rule="evenodd" points="144.21414184570312,76.67682838439941 130.66415405273438,81.7568302154541 133.03414916992188,87.17682838439941 144.21414184570312,76.67682838439941 " class="af"/>
  <polygon id="svg_74" fill="#856400" fill-rule="evenodd" points="155.57415771484375,73.3768253326416 169.524169921875,69.53682899475098 170.7841796875,75.31682777404785 155.57415771484375,73.3768253326416 " class="af"/>
  <polygon id="svg_75" fill="#755800" fill-rule="evenodd" points="148.984130859375,115.47683143615723 159.95416259765625,108.04683113098145 171.71417236328125,108.83683204650879 162.30413818359375,115.8768253326416 148.984130859375,115.47683143615723 " class="aq"/>
  <polygon id="svg_76" fill="#b58b00" fill-rule="evenodd" points="174.95416259765625,106.76682472229004 161.92413330078125,115.10682106018066 144.524169921875,115.60682106018066 163.1041259765625,120.20682716369629 174.95416259765625,106.76682472229004 " class="ap"/>
  <polygon id="svg_77" fill="#856400" fill-rule="evenodd" points="109.85415649414062,79.88682746887207 120.28414916992188,98.09682655334473 112.1441650390625,102.86683082580566 107.90414428710938,95.96682929992676 92.55416870117188,104.7568302154541 82.244140625,87.29683113098145 109.85415649414062,79.88682746887207 " class="af"/>
  <polygon id="svg_78" fill="#8b6651" fill-rule="evenodd" points="160.45416259765625,136.8368320465088 136.56414794921875,145.15682411193848 154.08416748046875,152.23682594299316 160.45416259765625,136.8368320465088 " class="aa"/>
  <polygon id="svg_79" fill="#8b6651" fill-rule="evenodd" points="116.94415283203125,117.1268253326416 113.30416870117188,131.4268283843994 105.744140625,123.09682655334473 116.94415283203125,117.1268253326416 " class="aa"/>
  <polygon id="svg_80" fill="#8b6651" fill-rule="evenodd" points="128.09414672851562,127.57682228088379 116.36416625976562,145.03682899475098 111.82415771484375,137.24683570861816 117.244140625,131.4268283843994 128.09414672851562,127.57682228088379 " class="aa"/>
  <path id="svg_81" fill="#755800" fill-rule="evenodd" d="m118.43416,111.30683l9.66,16.27l-16.27,9.67l-9.67,-16.27l16.28,-9.67zm-10.46,11.15l5.33,9l9,-5.33l-5.33,-9l-9,5.33z" class="aq"/>
  <rect transform="rotate(-30.72 -365.51 245.84)" id="svg_82" fill="#b58b00" height="14.51" width="4.6" y="371.34026" x="107.57974" class="ar"/>
  <polygon id="svg_83" fill="#e8cab6" fill-rule="evenodd" points="155.57415771484375,73.3768253326416 144.21414184570312,76.67682838439941 151.6041259765625,100.56682777404785 162.754150390625,97.20682716369629 155.57415771484375,73.3768253326416 " class="as"/>
  <polygon id="svg_84" fill="#8b6651" fill-rule="evenodd" points="162.754150390625,97.20682716369629 158.8541259765625,104.45682716369629 151.6041259765625,100.56682777404785 162.754150390625,97.20682716369629 " class="aa"/>
  <circle id="svg_85" fill="#2b2b2b" r="3.48" cy="93.78683" cx="142.35416" class="at"/>
  <path id="svg_86" fill="#2b2b2b" fill-rule="evenodd" d="m169.36416,85.99683a3.49,3.49 0 1 1 -3.48,-3.49a3.48,3.48 0 0 1 3.48,3.49z" class="au"/>
 </g>
</svg>