<svg xmlns="http://www.w3.org/2000/svg" xmlns:xlink="http://www.w3.org/1999/xlink" width="358" height="125" viewBox="0 0 358 125" fill="none"><defs><rect id="path_0" x="0" y="0" width="358" height="124.27047468533048" /><linearGradient id="linear_0" x1="0%" y1="50%" x2="100%" y2="50%" gradientUnits="objectBoundingBox"><stop offset="0" stop-color="#B6F4FC" stop-opacity="1" /><stop offset="0.7023" stop-color="#5CBFE0" stop-opacity="1" /><stop offset="0.9917" stop-color="#8DD6F7" stop-opacity="1" /></linearGradient><linearGradient id="linear_1" x1="0%" y1="50%" x2="100%" y2="50%" gradientUnits="objectBoundingBox"><stop offset="0" stop-color="#B6F4FC" stop-opacity="1" /><stop offset="0.7023" stop-color="#5CBFE0" stop-opacity="1" /><stop offset="0.9917" stop-color="#8DD6F7" stop-opacity="1" /></linearGradient><linearGradient id="linear_2" x1="0%" y1="50%" x2="100%" y2="50%" gradientUnits="objectBoundingBox"><stop offset="0" stop-color="#B6F4FC" stop-opacity="1" /><stop offset="0.7023" stop-color="#5CBFE0" stop-opacity="1" /><stop offset="0.9917" stop-color="#8DD6F7" stop-opacity="1" /></linearGradient><linearGradient id="linear_3" x1="0%" y1="50%" x2="100%" y2="50%" gradientUnits="objectBoundingBox"><stop offset="0" stop-color="#B6F4FC" stop-opacity="1" /><stop offset="0.7023" stop-color="#5CBFE0" stop-opacity="1" /><stop offset="0.9917" stop-color="#8DD6F7" stop-opacity="1" /></linearGradient><linearGradient id="linear_4" x1="0%" y1="50%" x2="100%" y2="50%" gradientUnits="objectBoundingBox"><stop offset="0" stop-color="#B6F4FC" stop-opacity="1" /><stop offset="0.7023" stop-color="#5CBFE0" stop-opacity="1" /><stop offset="0.9917" stop-color="#8DD6F7" stop-opacity="1" /></linearGradient><linearGradient id="linear_5" x1="0%" y1="50%" x2="100%" y2="50%" gradientUnits="objectBoundingBox"><stop offset="0" stop-color="#B6F4FC" stop-opacity="1" /><stop offset="0.7023" stop-color="#5CBFE0" stop-opacity="1" /><stop offset="0.9917" stop-color="#8DD6F7" stop-opacity="1" /></linearGradient><linearGradient id="linear_6" x1="0%" y1="50%" x2="100%" y2="50%" gradientUnits="objectBoundingBox"><stop offset="0" stop-color="#B6F4FC" stop-opacity="1" /><stop offset="0.7023" stop-color="#5CBFE0" stop-opacity="1" /><stop offset="0.9917" stop-color="#8DD6F7" stop-opacity="1" /></linearGradient><linearGradient id="linear_7" x1="0%" y1="50%" x2="100%" y2="50%" gradientUnits="objectBoundingBox"><stop offset="0" stop-color="#B6F4FC" stop-opacity="1" /><stop offset="0.7023" stop-color="#5CBFE0" stop-opacity="1" /><stop offset="0.9917" stop-color="#8DD6F7" stop-opacity="1" /></linearGradient><linearGradient id="linear_8" x1="0%" y1="50%" x2="100%" y2="50%" gradientUnits="objectBoundingBox"><stop offset="0" stop-color="#B6F4FC" stop-opacity="1" /><stop offset="0.7023" stop-color="#5CBFE0" stop-opacity="1" /><stop offset="0.9917" stop-color="#8DD6F7" stop-opacity="1" /></linearGradient><linearGradient id="linear_9" x1="0%" y1="50%" x2="100%" y2="50%" gradientUnits="objectBoundingBox"><stop offset="0" stop-color="#B6F4FC" stop-opacity="1" /><stop offset="0.7023" stop-color="#5CBFE0" stop-opacity="1" /><stop offset="0.9917" stop-color="#8DD6F7" stop-opacity="1" /></linearGradient><linearGradient id="linear_10" x1="0%" y1="50%" x2="100%" y2="50%" gradientUnits="objectBoundingBox"><stop offset="0" stop-color="#B6F4FC" stop-opacity="1" /><stop offset="0.7023" stop-color="#5CBFE0" stop-opacity="1" /><stop offset="0.9917" stop-color="#8DD6F7" stop-opacity="1" /></linearGradient><linearGradient id="linear_11" x1="0%" y1="50%" x2="100%" y2="50%" gradientUnits="objectBoundingBox"><stop offset="0" stop-color="#B6F4FC" stop-opacity="1" /><stop offset="0.7023" stop-color="#5CBFE0" stop-opacity="1" /><stop offset="0.9917" stop-color="#8DD6F7" stop-opacity="1" /></linearGradient><linearGradient id="linear_12" x1="0%" y1="50%" x2="100%" y2="50%" gradientUnits="objectBoundingBox"><stop offset="0" stop-color="#B6F4FC" stop-opacity="1" /><stop offset="0.7023" stop-color="#5CBFE0" stop-opacity="1" /><stop offset="0.9917" stop-color="#8DD6F7" stop-opacity="1" /></linearGradient><linearGradient id="linear_13" x1="0%" y1="50%" x2="100%" y2="50%" gradientUnits="objectBoundingBox"><stop offset="0" stop-color="#B6F4FC" stop-opacity="1" /><stop offset="0.7023" stop-color="#5CBFE0" stop-opacity="1" /><stop offset="0.9917" stop-color="#8DD6F7" stop-opacity="1" /></linearGradient><linearGradient id="linear_14" x1="0%" y1="50%" x2="100%" y2="50%" gradientUnits="objectBoundingBox"><stop offset="0" stop-color="#B6F4FC" stop-opacity="1" /><stop offset="0.7023" stop-color="#5CBFE0" stop-opacity="1" /><stop offset="0.9917" stop-color="#8DD6F7" stop-opacity="1" /></linearGradient><linearGradient id="linear_15" x1="0%" y1="50%" x2="100%" y2="50%" gradientUnits="objectBoundingBox"><stop offset="0" stop-color="#B6F4FC" stop-opacity="1" /><stop offset="0.7023" stop-color="#5CBFE0" stop-opacity="1" /><stop offset="0.9917" stop-color="#8DD6F7" stop-opacity="1" /></linearGradient><linearGradient id="linear_16" x1="0%" y1="50%" x2="100%" y2="50%" gradientUnits="objectBoundingBox"><stop offset="0" stop-color="#B6F4FC" stop-opacity="1" /><stop offset="0.7023" stop-color="#5CBFE0" stop-opacity="1" /><stop offset="0.9917" stop-color="#8DD6F7" stop-opacity="1" /></linearGradient><linearGradient id="linear_17" x1="0%" y1="50%" x2="100%" y2="50%" gradientUnits="objectBoundingBox"><stop offset="0" stop-color="#B6F4FC" stop-opacity="1" /><stop offset="0.7023" stop-color="#5CBFE0" stop-opacity="1" /><stop offset="0.9917" stop-color="#8DD6F7" stop-opacity="1" /></linearGradient></defs><g opacity="1" transform="translate(0 0)  rotate(0 179 62.13523734266524)"><mask id="bg-mask-0" fill="white"><use xlink:href="#path_0"></use></mask><g mask="url(#bg-mask-0)" ><g opacity="1" transform="translate(0.36371846249366396 0.16165264999715845)  rotate(0 178.58576508438227 61.79729750934444)"><path id="路径 1" style="stroke:url(#linear_0); stroke-width:0.5; stroke-opacity:100; stroke-dasharray:0 0" transform="translate(0 41.73530358950696)  rotate(0 178.57566179375743 35.183578714071835)" d="M0,20.28C0,20.28 28.15,50.71 74.54,38.16C120.94,25.61 142.25,-2.15 186,0.13C229.75,2.42 257.51,43.11 286.79,58.71C316.07,74.31 357.15,69.74 357.15,69.74 " /><path id="路径 2" style="stroke:url(#linear_1); stroke-width:0.5; stroke-opacity:100; stroke-dasharray:0 0" transform="translate(0 44.19917521193739)  rotate(0 178.58576508438222 31.38845247828061)" d="M0,21.35C0,21.35 29.04,50.29 75.11,37.98C89.86,34.04 102.2,28.56 113.44,22.87C137.42,10.7 157.37,-1.3 186.97,0.11C207.22,1.06 224.21,9.85 239.21,20.54C256.85,33.15 272.73,46.93 288.59,54.07C317.43,67.06 356.65,62.05 357.17,60.69 " /><path id="路径 3" style="stroke:url(#linear_2); stroke-width:0.5; stroke-opacity:100; stroke-dasharray:0 0" transform="translate(0 46.679345108615394)  rotate(0 178.56555850313262 27.771231790864768)" d="M0,22.41C0,22.41 29.95,49.83 75.65,37.8C90.4,33.94 102.85,28.51 114.13,22.71C138.07,10.4 158.54,-1.19 187.94,0.1C208.39,0.95 225.65,9.39 240.58,19.7C258.14,31.84 274.43,43.6 290.35,49.44C318.64,59.85 356.1,54.37 357.13,51.65 " /><path id="路径 4" style="stroke:url(#linear_3); stroke-width:0.5; stroke-opacity:100; stroke-dasharray:0 0" transform="translate(0 49.158913939674626)  rotate(0 178.56555850313262 24.33215365085564)" d="M0,23.46C0,23.46 30.84,49.39 76.2,37.63C90.93,33.83 103.5,28.45 114.79,22.55C138.7,10.11 159.71,-1.09 188.91,0.08C209.54,0.85 227.08,8.96 241.97,18.86C259.45,30.52 276.06,40.26 292.13,44.82C319.75,52.68 355.56,46.7 357.13,42.62 " /><path id="路径 5" style="stroke:url(#linear_4); stroke-width:0.5; stroke-opacity:100; stroke-dasharray:0 0" transform="translate(0 51.640404476934656)  rotate(0 178.57566179375743 21.105614565010494)" d="M0,24.52C0,24.52 31.74,48.95 76.76,37.43C91.5,33.69 104.16,28.38 115.5,22.4C139.38,9.83 160.93,-0.96 189.92,0.07C210.73,0.74 228.56,8.49 243.41,18.01C260.81,29.21 277.68,36.93 293.95,40.2C320.78,45.59 355.07,39.03 357.15,33.59 " /><path id="路径 6" style="stroke:url(#linear_5); stroke-width:0.5; stroke-opacity:100; stroke-dasharray:0 0" transform="translate(0 54.12500953108635)  rotate(0 178.57566179375743 20.178522039203006)" d="M0,25.57C0,25.57 32.63,48.5 77.31,37.25C92.02,33.57 104.83,28.3 116.17,22.24C140.01,9.53 162.1,-0.8 190.87,0.05C211.87,0.68 229.95,8.03 244.78,17.16C262.08,27.89 279.15,33.63 295.72,35.57C321.69,38.6 354.54,31.35 357.15,24.56 " /><path id="路径 7" style="stroke:url(#linear_6); stroke-width:0.5; stroke-opacity:100; stroke-dasharray:0 0" transform="translate(0 56.60346418736211)  rotate(0 178.5756617937574 20.10495604984431)" d="M0,26.63C0,26.63 33.54,48.07 77.88,37.07C92.57,33.46 105.5,28.24 116.87,22.1C140.68,9.25 163.31,-0.67 191.86,0.04C213.06,0.56 231.41,7.59 246.2,16.34C263.41,26.59 281.28,26.24 297.52,30.97C321.55,37.96 354.02,23.7 357.15,15.53 " /><path id="路径 8" style="stroke:url(#linear_7); stroke-width:0.5; stroke-opacity:100; stroke-dasharray:0 0" transform="translate(0 59.07859505003188)  rotate(0 178.57566179375743 20.027697073838436)" d="M0,27.69C0,27.69 34.43,47.61 78.42,36.88C93.11,33.33 106.15,28.17 117.54,21.93C141.3,8.96 164.48,-0.56 192.83,0.03C214.21,0.47 232.84,7.14 247.59,15.5C264.73,25.28 282.41,22.6 299.3,26.35C322.76,31.57 353.49,16.03 357.15,6.51 " /><path id="路径 9" style="stroke:url(#linear_8); stroke-width:0.5; stroke-opacity:100; stroke-dasharray:0 0" transform="translate(0 59.04363041146923)  rotate(0 178.58576508438222 21.218783660547434)" d="M0,31.26C0,31.26 35.34,49.69 78.97,39.22C93.64,35.73 106.79,30.63 118.23,24.29C141.95,11.17 165.67,2.06 193.82,2.53C215.38,2.87 234.3,9.19 249.01,17.18C266.06,26.49 283.44,21.7 301.1,24.25C324.05,27.54 352.99,10.85 357.17,0 " /><path id="路径 10" style="stroke:url(#linear_9); stroke-width:0.5; stroke-opacity:100; stroke-dasharray:0 0" transform="translate(0 52.516904667833195)  rotate(0 178.57566179375743 25.660924906877366)" d="M0,41.32C0,41.32 36.23,58.26 79.53,48.05C94.2,44.62 107.46,39.58 118.92,33.16C142.62,19.92 166.87,11.21 194.79,11.54C216.53,11.78 235.73,17.78 250.4,25.36C267.35,34.19 284.81,32.75 302.88,28.65C324.82,23.66 352.44,12.2 357.15,0 " /><path id="路径 11" style="stroke:url(#linear_10); stroke-width:0.5; stroke-opacity:100; stroke-dasharray:0 0" transform="translate(0 45.90935259919853)  rotate(0 178.58576508438222 30.14543458674937)" d="M0,51.47C0,51.47 37.14,66.9 80.08,56.94C94.73,53.57 108.11,48.58 119.58,42.07C143.26,28.69 168.06,20.39 195.78,20.57C217.73,20.73 237.18,26.37 251.81,33.56C268.69,41.93 286.27,38.92 304.67,33.08C325.65,26.41 351.94,13.58 357.17,0 " /><path id="路径 12" style="stroke:url(#linear_11); stroke-width:0.5; stroke-opacity:100; stroke-dasharray:0 0" transform="translate(0 39.362420274312846)  rotate(0 178.57566179375743 34.61208641799616)" d="M0,61.55C0,61.55 38.03,75.49 80.62,65.79C95.25,62.5 108.75,57.55 120.27,50.94C143.89,37.42 169.23,29.52 196.73,29.6C218.86,29.66 238.6,34.96 253.19,41.77C269.98,49.67 287.72,45.2 306.45,37.48C326.5,29.22 351.41,14.93 357.15,0 " /><path id="路径 13" style="stroke:url(#linear_12); stroke-width:0.5; stroke-opacity:100; stroke-dasharray:0 0" transform="translate(0 32.81548794942713)  rotate(0 178.58576508438227 39.084273931330266)" d="M0,71.63C0,71.63 38.94,84.06 81.19,74.64C95.82,71.41 109.44,66.52 120.96,59.83C144.54,46.19 170.42,38.8 197.72,38.61C220.03,38.47 240.05,43.52 254.6,49.95C271.29,57.37 289.32,51.55 308.25,41.89C327.47,32.11 350.89,16.29 357.17,0 " /><path id="路径 14" style="stroke:url(#linear_13); stroke-width:0.5; stroke-opacity:100; stroke-dasharray:0 0" transform="translate(0 26.22814246204213)  rotate(0 178.58576508438222 43.59017937608608)" d="M0,81.76C0,81.76 39.83,92.69 81.74,83.51C96.34,80.34 110.09,75.51 121.64,68.72C145.18,54.94 171.61,47.77 198.71,47.65C221.2,47.47 241.51,52.13 256.02,58.15C272.63,65.11 290.99,57.97 310.05,46.31C328.52,35.02 350.38,17.66 357.17,0 " /><path id="路径 15" style="stroke:url(#linear_14); stroke-width:0.5; stroke-opacity:100; stroke-dasharray:0 0" transform="translate(0 19.681210137156427)  rotate(0 178.58576508438222 48.08640098990324)" d="M0,91.82C0,91.82 40.74,101.26 82.3,92.34C96.91,89.23 110.75,84.46 122.33,77.57C145.85,63.67 172.81,56.9 199.68,56.66C222.37,56.38 242.94,60.7 257.41,66.34C273.94,72.82 292.75,64.42 311.83,50.72C329.65,37.93 349.86,19.01 357.17,0 " /><path id="路径 16" style="stroke:url(#linear_15); stroke-width:0.5; stroke-opacity:100; stroke-dasharray:0 0" transform="translate(0 13.114071231021086)  rotate(0 178.57566179375743 52.62267997646997)" d="M0,101.92C0,101.92 41.63,109.86 82.85,101.19C97.44,98.14 111.4,93.42 123.02,86.46C146.5,72.42 174,66.06 200.67,65.67C223.55,65.29 244.4,69.27 258.81,74.52C275.25,80.52 294.61,70.88 313.61,55.12C330.86,40.82 349.31,20.37 357.15,0 " /><path id="路径 17" style="stroke:url(#linear_16); stroke-width:0.5; stroke-opacity:100; stroke-dasharray:0 0" transform="translate(0 6.587345487385008)  rotate(0 178.58576508438222 57.1733381164032)" d="M0,111.98C0,111.98 42.53,118.43 83.39,110.02C97.98,107.03 112.05,102.37 123.68,95.31C147.14,81.15 175.19,75.19 201.64,74.68C224.7,74.22 245.83,77.86 260.2,82.71C276.55,88.24 296.53,77.37 315.4,59.53C332.16,43.67 348.81,21.72 357.17,0 " /><path id="路径 18" style="stroke:url(#linear_17); stroke-width:0.5; stroke-opacity:100; stroke-dasharray:0 0" transform="translate(0 0)  rotate(0 178.5756617937574 61.79729750934444)" d="M0,122.11C0,122.11 80.26,131.24 124.37,104.23C168.48,77.21 231.08,81.41 261.59,90.91C292.11,100.43 338.14,49.45 357.15,0 " /></g></g></g></svg>